<?xml version="1.0" standalone="no"?> <!DOCTYPE svg PUBLIC "-//W3C//DTD SVG 20010904//EN"  "http://www.w3.org/TR/2001/REC-SVG-20010904/DTD/svg10.dtd"> <svg version="1.0" xmlns="http://www.w3.org/2000/svg"  width="450.000000pt" height="150.000000pt" viewBox="0 0 450.000000 150.000000"  preserveAspectRatio="xMidYMid meet"> <g transform="translate(0.000000,150.000000) scale(0.100000,-0.100000)" fill="currentColor" stroke="none"> <path d="M3985 1326 c-16 -8 -95 -58 -175 -113 -123 -83 -148 -105 -167 -143 -42 -81 -36 -99 90 -286 113 -170 142 -202 186 -206 24 -3 25 0 48 132 13 74 46 238 74 365 27 126 51 237 52 245 3 20 -68 24 -108 6z"/> <path d="M978 1240 c-22 -13 -22 -28 -4 -66 12 -24 13 -59 4 -209 -16 -300 -11 -327 79 -367 36 -16 57 -18 140 -12 127 7 147 16 174 71 19 40 21 56 16 137 -4 50 -13 127 -22 171 -8 44 -15 124 -15 178 l0 97 -55 0 c-67 0 -74 -11 -50 -74 13 -35 17 -82 18 -234 2 -178 1 -192 -19 -218 -44 -60 -112 -53 -141 14 -23 52 -25 410 -3 459 10 23 11 36 4 43 -15 15 -106 22 -126 10z"/> <path d="M1889 1231 c-20 -16 -20 -18 -5 -55 20 -47 20 -84 1 -261 -18 -175 -19 -289 -2 -303 36 -30 137 -26 137 6 0 10 -14 37 -30 59 -39 53 -52 123 -47 255 3 103 16 148 41 148 19 0 33 -44 51 -156 26 -160 71 -234 134 -217 18 5 21 13 21 63 0 31 7 79 15 106 8 27 15 67 15 89 1 43 14 113 24 123 15 15 26 -21 36 -113 18 -173 16 -255 -9 -302 -11 -23 -21 -49 -21 -57 0 -31 78 -48 120 -26 44 24 43 124 -6 349 -12 54 -15 103 -11 177 3 67 1 106 -6 113 -16 16 -94 13 -121 -4 -34 -22 -45 -56 -55 -168 -8 -90 -21 -130 -37 -114 -4 3 -19 57 -35 118 -40 156 -51 169 -147 182 -31 4 -48 1 -63 -12z"/> <path d="M2977 1242 c-110 -3 -119 -9 -91 -64 14 -26 19 -76 26 -246 8 -185 7 -221 -7 -269 -23 -79 -30 -77 205 -73 89 1 131 6 147 16 78 50 73 215 -8 308 -21 24 -39 48 -39 53 0 6 16 25 36 43 32 29 35 36 29 69 -3 20 -8 57 -11 83 -3 26 -13 53 -22 61 -19 17 -113 24 -265 19z m178 -106 c19 -29 9 -57 -34 -94 -46 -40 -81 -55 -97 -41 -18 14 -18 76 0 108 29 52 105 68 131 27z m-14 -216 c30 -17 51 -68 52 -131 1 -49 -2 -62 -23 -84 -55 -59 -106 -51 -140 21 -25 54 -25 87 -1 140 27 59 66 78 112 54z"/> <path d="M65 1220 c-3 -10 -1 -38 6 -62 19 -66 15 -440 -5 -498 -21 -61 -11 -70 76 -70 80 0 87 8 58 65 -13 26 -20 59 -20 100 0 51 4 65 25 88 29 31 42 33 72 12 16 -11 26 -37 38 -93 33 -152 33 -152 72 -169 40 -16 101 -10 109 11 3 7 -16 53 -41 103 -25 50 -45 95 -45 100 0 5 -13 29 -28 54 -15 24 -26 51 -24 59 1 8 20 28 42 44 48 36 54 58 39 159 -18 120 -12 117 -205 117 -153 0 -163 -1 -169 -20z m255 -75 c7 -8 13 -33 14 -55 1 -35 -5 -46 -54 -95 -83 -85 -119 -68 -101 46 10 59 20 81 51 106 21 17 75 16 90 -2z"/> <path d="M4087 1123 c-4 -3 -7 -17 -7 -31 0 -32 -98 -515 -113 -559 l-12 -34 -1560 -2 c-1379 -2 -1560 -4 -1560 -17 0 -13 181 -15 1557 -18 l1558 -2 -7 -45 -6 -45 50 0 c46 0 60 7 199 100 82 55 161 112 176 126 32 30 52 94 45 142 -8 47 -210 348 -250 372 -33 20 -59 25 -70 13z"/> <path d="M3227 361 c-13 -16 -38 -36 -56 -46 -64 -33 -76 -121 -23 -178 47 -50 144 -32 178 34 33 66 -2 142 -73 155 l-37 7 28 22 c16 13 24 25 18 29 -6 3 -21 -7 -35 -23z m50 -73 c28 -26 32 -101 7 -136 -23 -33 -86 -31 -113 4 -28 36 -29 106 -1 134 27 27 77 26 107 -2z"/> <path d="M1074 320 c-31 -12 -74 -68 -74 -96 0 -29 22 -75 44 -93 26 -22 88 -31 124 -20 45 15 40 31 -8 23 -24 -4 -52 -2 -69 6 -55 22 -66 121 -18 155 28 19 81 19 101 0 19 -20 26 -19 26 4 0 28 -76 41 -126 21z"/> <path d="M1273 311 c-38 -24 -53 -49 -53 -91 0 -68 43 -109 112 -110 39 0 52 5 77 30 34 35 47 83 32 122 -22 58 -112 84 -168 49z m112 -26 c19 -18 25 -35 25 -67 0 -60 -22 -88 -68 -88 -20 0 -42 4 -48 8 -38 25 -46 120 -14 152 28 28 75 26 105 -5z"/> <path d="M2423 323 c-36 -7 -83 -68 -83 -109 0 -46 53 -103 97 -105 52 -2 78 2 92 16 12 12 6 13 -42 8 -50 -5 -58 -3 -81 20 -37 37 -37 107 0 136 31 25 86 27 108 6 19 -20 26 -19 26 4 0 27 -49 37 -117 24z"/> <path d="M2870 319 c-89 -36 -104 -142 -26 -193 33 -21 119 -22 136 -1 12 14 8 15 -28 9 -26 -4 -53 -2 -71 6 -55 22 -66 121 -18 155 28 20 86 19 109 -2 17 -15 18 -15 18 4 0 31 -66 43 -120 22z"/> <path d="M1478 307 c11 -13 9 -138 -2 -175 -6 -19 -4 -22 19 -22 23 0 24 2 15 20 -6 11 -10 48 -8 83 l3 62 39 -82 c22 -46 42 -83 45 -83 3 0 21 34 40 75 36 79 49 93 45 48 -2 -16 -5 -49 -7 -76 l-5 -47 35 0 c30 0 34 2 23 14 -7 10 -10 45 -8 105 3 86 2 91 -18 91 -15 0 -28 -17 -54 -71 -19 -39 -38 -73 -42 -75 -4 -3 -23 29 -42 71 -31 66 -38 75 -62 75 -20 0 -24 -3 -16 -13z"/> <path d="M1758 313 c8 -3 12 -27 12 -67 0 -89 14 -123 55 -135 83 -23 121 14 124 120 1 40 4 76 7 81 3 4 -7 8 -22 8 -22 0 -25 -3 -16 -12 18 -18 15 -129 -4 -156 -17 -25 -71 -31 -92 -10 -17 17 -16 165 1 171 6 3 -8 5 -33 5 -25 0 -39 -2 -32 -5z"/> <path d="M1998 309 c16 -17 16 -171 0 -187 -9 -9 -5 -12 21 -12 28 0 31 2 22 14 -7 9 -11 41 -9 85 l3 70 65 -82 c36 -45 73 -83 83 -85 15 -3 17 6 17 86 0 50 3 97 6 106 5 12 0 16 -22 15 -16 0 -23 -3 -16 -6 13 -5 18 -154 5 -152 -5 0 -35 35 -68 77 -48 61 -67 78 -90 80 -24 3 -28 1 -17 -9z"/> <path d="M2258 308 c7 -7 12 -44 12 -95 0 -68 -3 -84 -17 -92 -14 -8 -9 -10 25 -11 23 0 42 5 42 10 0 6 -4 10 -10 10 -15 0 -13 163 2 178 9 9 3 12 -27 12 -30 0 -36 -3 -27 -12z"/> <path d="M2637 268 c-12 -29 -34 -77 -48 -105 l-26 -53 29 0 c18 0 27 4 23 11 -4 5 -4 21 -1 35 6 21 12 24 51 24 46 0 51 -5 47 -52 -1 -14 6 -18 35 -18 33 0 35 1 21 18 -8 9 -32 56 -53 105 -21 48 -42 87 -47 87 -4 0 -18 -24 -31 -52z m41 -23 c18 -39 15 -45 -19 -45 -26 0 -30 3 -24 18 4 9 10 25 12 35 7 24 18 21 31 -8z"/> <path d="M3028 308 c7 -7 12 -44 12 -95 0 -68 -3 -84 -17 -92 -14 -8 -9 -10 27 -11 34 0 41 3 32 12 -16 16 -16 170 0 186 9 9 3 12 -27 12 -30 0 -36 -3 -27 -12z"/> <path d="M3367 308 c6 -8 8 -51 4 -106 l-6 -92 29 0 c22 0 26 3 18 12 -11 15 -21 148 -10 148 4 0 35 -36 70 -80 87 -110 98 -108 98 19 0 70 4 101 13 104 6 3 -4 6 -22 6 -27 1 -32 -2 -23 -11 13 -13 17 -148 5 -147 -5 0 -37 36 -72 80 -49 61 -69 79 -88 79 -19 0 -23 -3 -16 -12z"/> </g> </svg>