<svg width="335" height="46" viewBox="0 0 335 46" fill="none" xmlns="http://www.w3.org/2000/svg">
<g filter="url(#filter0_i_664_4)">
<path d="M298.352 30.5596C298.352 29.8808 298.39 28.635 299.332 27.7471C300.235 26.8958 301.454 26.8799 302.092 26.8799V28.8799L301.845 28.8838C300.668 28.9218 300.352 29.266 300.352 30.5596L300.357 30.9502C300.612 38.8351 308.578 43.0104 315.785 43.2676L316.491 43.2803C325.731 43.2803 332.451 39.1997 332.451 30.6797C332.451 22.5199 326.091 20.7799 321.771 19.46C319.409 18.5149 310.825 17.221 310.558 13.6895L310.552 13.5195C310.552 10.82 313.851 10.0401 315.831 10.04L316.173 10.0459C317.897 10.1092 319.863 10.6477 320.932 11.6602C321.651 12.38 321.951 12.86 322.191 13.46C322.473 14.1911 322.648 14.9751 323.608 15.0703L323.812 15.0801H329.691L329.938 15.0771C331.037 15.0476 331.385 14.7881 331.427 13.6562L331.432 13.3994C331.431 5.47983 323.091 2.00007 315.472 2C307.972 2.29999 300.892 6.13974 300.892 13.9395L300.896 14.293C301.066 21.6346 306.566 23.9899 312.531 25.8799C317.631 27.4999 322.972 27.5599 322.972 30.9199L322.964 31.2275C322.806 34.3241 320.23 34.9999 317.092 35V33C318.649 33 319.674 32.8101 320.265 32.4775C320.517 32.3356 320.661 32.1823 320.758 32.0078C320.86 31.8234 320.972 31.4967 320.972 30.9199C320.972 30.7105 320.929 30.6114 320.747 30.4531C320.476 30.2175 319.959 29.9444 319.049 29.6504C318.158 29.3626 317.105 29.1181 315.857 28.8252C314.644 28.5403 313.284 28.2174 311.926 27.7861V27.7852C308.901 26.8267 305.644 25.6533 303.159 23.584C300.545 21.4071 298.892 18.3363 298.892 13.9395C298.892 9.34133 301.017 5.85371 304.191 3.54102C307.301 1.27579 311.361 0.163183 315.392 0.00195312L315.432 0H315.472C319.542 3.52772e-05 323.921 0.922525 327.354 3.02441C330.853 5.16731 333.431 8.60217 333.432 13.3994C333.432 14.0765 333.404 15.3639 332.429 16.2559C331.936 16.7065 331.374 16.8952 330.933 16.9824C330.508 17.0663 330.068 17.0801 329.691 17.0801H323.812C323.277 17.0801 322.735 16.9801 322.226 16.7256C321.711 16.4682 321.338 16.1067 321.072 15.7432C320.646 15.1607 320.391 14.3556 320.327 14.1846C320.208 13.8899 320.073 13.6341 319.542 13.0996C319.279 12.8568 318.784 12.5782 318.059 12.3623C317.344 12.1496 316.546 12.04 315.831 12.04C315.041 12.0401 314.051 12.2046 313.338 12.5586C312.677 12.8869 312.552 13.1895 312.552 13.5195C312.552 13.5337 312.54 13.783 313.173 14.2617C313.798 14.7342 314.753 15.1912 315.942 15.6221C317.109 16.0446 318.365 16.3949 319.529 16.7109C320.567 16.9924 321.672 17.2816 322.413 17.5645C324.48 18.1948 327.495 19.0518 329.942 20.9131C332.564 22.9072 334.451 25.9685 334.451 30.6797C334.451 35.5371 332.499 39.3019 329.121 41.7861C325.827 44.2086 321.367 45.2803 316.491 45.2803C312.398 45.2802 307.953 44.1094 304.476 41.7178C300.951 39.2943 298.352 35.5471 298.352 30.5596ZM307.911 26.8799C308.528 26.8799 309.642 26.8792 310.565 27.4883C311.549 28.1374 311.9 29.1377 312.024 30.0273L312.065 30.4004V30.4062C312.088 30.6974 312.18 31.0838 312.723 31.71L312.748 31.7393C313.006 32.0488 313.514 32.3838 314.348 32.6357C315.161 32.8813 316.129 33 317.092 33V35L316.673 34.9932C314.639 34.9307 312.485 34.4068 311.327 33.1523L311.212 33.0195C310.432 32.1195 310.131 31.3396 310.071 30.5596C309.966 29.2473 309.448 28.9456 308.396 28.8906L307.911 28.8799V26.8799ZM307.911 26.8799V28.8799H302.092V26.8799H307.911Z" fill="black"/>
</g>
<g filter="url(#filter1_i_664_4)">
<path d="M295.52 15.5596C295.519 6.37588 287.073 2.25987 280.054 2.01172L279.38 2C272.24 2 263.36 6.07979 263.359 15.5596V29.7197C263.359 38.9033 271.693 43.0192 278.705 43.2676L279.38 43.2803C286.52 43.2802 295.52 39.1996 295.52 29.7197V15.5596ZM284.1 28.8799V16.3994C284.1 14.9926 283.613 14.0511 282.909 13.4365C282.172 12.793 281 12.3399 279.38 12.3398C277.796 12.3398 276.639 12.7885 275.907 13.4316C275.207 14.0472 274.72 14.9919 274.72 16.3994V28.8799C274.72 30.2876 275.207 31.232 275.907 31.8477C276.639 32.4908 277.796 32.9395 279.38 32.9395V34.9395L279.018 34.9336C275.43 34.8042 272.888 32.7398 272.728 29.2354L272.72 28.8799V16.3994C272.72 12.5597 275.48 10.3398 279.38 10.3398L279.747 10.3467C283.509 10.4805 286.099 12.6796 286.1 16.3994V28.8799L286.092 29.2354C285.926 32.8565 283.216 34.9393 279.38 34.9395V32.9395C281 32.9394 282.172 32.4872 282.909 31.8438C283.613 31.2291 284.1 30.2871 284.1 28.8799ZM297.52 29.7197C297.52 35.1951 294.879 39.1637 291.275 41.6924C287.739 44.1737 283.284 45.2802 279.38 45.2803C275.474 45.2803 271.045 44.1727 267.536 41.6865C263.959 39.1525 261.359 35.184 261.359 29.7197V15.5596C261.359 10.0955 263.959 6.12674 267.536 3.59277C271.045 1.10674 275.474 0 279.38 0C283.284 5.87188e-05 287.739 1.10647 291.275 3.58789C294.879 6.11652 297.519 10.0843 297.52 15.5596V29.7197Z" fill="black"/>
</g>
<g filter="url(#filter2_i_664_4)">
<path d="M236.146 40.6396V13.3604H228.906C227.94 13.3603 226.817 13.1298 226.014 12.2119C225.262 11.3523 225.166 10.2999 225.166 9.62012V4.63965C225.166 3.95987 225.262 2.90743 226.014 2.04785C226.817 1.12993 227.94 0.899445 228.906 0.899414V2.89941C227.527 2.89948 227.166 3.55984 227.166 4.63965V9.62012L227.171 9.81738C227.213 10.7156 227.561 11.2811 228.659 11.3525L228.906 11.3604H238.146V40.6396L238.154 40.8867C238.226 41.9848 238.79 42.3343 239.688 42.376L239.887 42.3799H245.826C246.906 42.3799 247.566 42.0196 247.566 40.6396V11.3604H256.746L256.993 11.3525C258.092 11.2812 258.441 10.7157 258.482 9.81738L258.486 9.62012V4.63965C258.486 3.55979 258.126 2.89941 256.746 2.89941V0.899414C257.712 0.899414 258.835 1.13005 259.639 2.04785C260.391 2.90744 260.486 3.95986 260.486 4.63965V9.62012C260.486 10.2999 260.391 11.3523 259.639 12.2119C258.835 13.1297 257.712 13.3604 256.746 13.3604H249.566V40.6396C249.566 41.606 249.336 42.729 248.418 43.5322C247.558 44.2844 246.506 44.3799 245.826 44.3799H239.887C239.207 44.3799 238.155 44.2844 237.295 43.5322C236.377 42.729 236.146 41.606 236.146 40.6396ZM256.746 0.899414V2.89941H228.906V0.899414H256.746Z" fill="black"/>
</g>
<g filter="url(#filter3_i_664_4)">
<path d="M200.296 28.8799V16.3994C200.296 12.6198 202.996 10.3995 206.956 10.3994C210.196 10.3994 211.877 11.3003 213.137 13.2803C213.586 13.9553 213.667 14.9992 214.714 15.127L214.937 15.1396H220.696C221.99 15.1396 222.493 14.8761 222.551 13.6562L222.557 13.3994C221.801 6.01779 214.851 2.23963 207.653 2.01074L206.956 2C199.816 2.00009 190.876 6.13989 190.876 15.5596V29.7197C190.876 38.8455 199.266 43.0159 206.282 43.2676L206.956 43.2803C214.28 43.2803 222.302 38.5708 222.551 31.041L222.557 30.6797C222.557 29.2398 222.076 28.6396 220.756 28.6396V26.6396C221.672 26.6396 222.829 26.845 223.665 27.8125C224.435 28.7038 224.557 29.8302 224.557 30.6797C224.557 35.3283 222.087 39.0278 218.73 41.4941C215.398 43.9431 211.077 45.2803 206.956 45.2803C203.045 45.2802 198.604 44.1553 195.084 41.665C191.499 39.1288 188.876 35.1627 188.876 29.7197V15.5596C188.876 10.1168 191.499 6.15043 195.084 3.61426C198.604 1.12415 203.045 4.50341e-05 206.956 0C214.838 0 223.611 4.06443 224.546 13.1963L224.557 13.2979V13.3994C224.557 14.203 224.456 15.4476 223.458 16.3174C222.545 17.1133 221.359 17.1396 220.696 17.1396H214.937C214.304 17.1396 213.687 16.9911 213.137 16.6494C212.602 16.3174 212.262 15.8858 212.044 15.5342C211.841 15.2073 211.692 14.8589 211.616 14.6885C211.57 14.5837 211.539 14.517 211.511 14.4609C211.487 14.4132 211.475 14.3929 211.473 14.3896L211.46 14.3711L211.449 14.3535C210.974 13.6064 210.499 13.177 209.922 12.8994C209.308 12.604 208.407 12.3994 206.956 12.3994C205.337 12.3995 204.182 12.8524 203.461 13.4854C202.772 14.0907 202.296 15.0178 202.296 16.3994V28.8799C202.296 30.299 202.776 31.2203 203.455 31.8125C204.17 32.4356 205.323 32.8798 206.956 32.8799V34.8799C203.12 34.8798 200.466 32.8529 200.304 29.2354L200.296 28.8799ZM214.876 28.6396C213.556 28.6398 213.436 29.5999 213.256 30.7998C212.776 33.6798 210.196 34.8799 206.956 34.8799V32.8799C208.362 32.8799 209.423 32.6149 210.119 32.2012C210.744 31.8299 211.144 31.3068 211.283 30.4707C211.351 30.0085 211.466 29.0599 211.892 28.2959C212.153 27.828 212.55 27.3704 213.135 27.0518C213.702 26.7429 214.308 26.6397 214.876 26.6396V28.6396ZM220.756 26.6396V28.6396H214.876V26.6396H220.756Z" fill="black"/>
</g>
<g filter="url(#filter4_i_664_4)">
<path d="M152.52 40.6396V4.63965C152.52 3.95989 152.614 2.90742 153.366 2.04785C154.169 1.12996 155.293 0.899464 156.259 0.899414V2.89941C154.879 2.89951 154.52 3.55987 154.52 4.63965V40.6396L154.523 40.8369C154.568 41.7995 154.965 42.3798 156.259 42.3799H183.139C184.519 42.3799 184.879 41.7196 184.879 40.6396V35.7197C184.879 34.6398 184.519 33.9795 183.139 33.9795V31.9795C184.105 31.9795 185.229 32.2099 186.032 33.1279C186.784 33.9875 186.879 35.04 186.879 35.7197V40.6396C186.879 41.3193 186.784 42.3719 186.032 43.2314C185.229 44.1494 184.105 44.3799 183.139 44.3799H156.259C155.293 44.3798 154.169 44.1493 153.366 43.2314C152.614 42.3718 152.52 41.3193 152.52 40.6396ZM181.819 24.3203V19.6396C181.819 18.5598 181.459 17.8994 180.079 17.8994V15.8994C181.045 15.8994 182.168 16.1299 182.972 17.0479C183.724 17.9074 183.819 18.9599 183.819 19.6396V24.3203C183.819 25.0001 183.724 26.0526 182.972 26.9121C182.168 27.83 181.045 28.0596 180.079 28.0596H165.999V31.9795H183.139V33.9795H163.999V26.0596H180.079C181.373 26.0596 181.77 25.4799 181.814 24.5176L181.819 24.3203ZM183.859 9.62012V4.63965C183.859 3.62732 183.543 2.98372 182.366 2.90723L182.119 2.89941V0.899414C183.085 0.89942 184.208 1.1299 185.012 2.04785C185.764 2.90744 185.859 3.95986 185.859 4.63965V9.62012C185.859 10.2999 185.764 11.3523 185.012 12.2119C184.208 13.1299 183.085 13.3603 182.119 13.3604H165.999V15.8994H180.079V17.8994H163.999V11.3604H182.119L182.366 11.3525C183.464 11.2811 183.813 10.7156 183.854 9.81738L183.859 9.62012ZM182.119 0.899414V2.89941H156.259V0.899414H182.119Z" fill="black"/>
</g>
<g filter="url(#filter5_i_664_4)">
<path d="M125.489 40.6396V28.0801L112.903 5.55566L112.862 5.4834L112.827 5.40723C112.511 4.71001 112.347 3.71204 112.732 2.75C112.939 2.23216 113.307 1.73424 113.864 1.38086C114.412 1.03256 115.024 0.899414 115.609 0.899414V2.89941L115.407 2.91113C114.455 3.02557 114.367 3.96131 114.649 4.58008L127.489 27.5596V40.6396L127.495 40.8867C127.561 41.9849 128.083 42.3343 129.021 42.376L129.229 42.3799H135.229L135.426 42.376C136.388 42.3314 136.968 41.9334 136.968 40.6396V27.5596L149.328 4.58008C149.628 3.92008 149.508 2.89941 148.368 2.89941V0.899414C148.953 0.899414 149.565 1.03248 150.114 1.38086C150.67 1.73424 151.038 2.23216 151.245 2.75C151.63 3.71215 151.466 4.71002 151.149 5.40723L151.121 5.46875L151.09 5.52734L138.968 28.0635V40.6396C138.968 41.6059 138.738 42.729 137.821 43.5322C136.961 44.2843 135.909 44.3799 135.229 44.3799H129.229C128.545 44.3799 127.463 44.2943 126.595 43.5156C125.678 42.6929 125.489 41.5541 125.489 40.6396ZM141.888 2.89941C140.508 2.89945 139.908 3.08038 139.128 4.7002L132.349 17.5996L125.328 4.7002C124.488 3.08019 123.888 2.89941 122.508 2.89941V0.899414C123.209 0.899414 124.192 0.92265 125.123 1.46191C126.046 1.99612 126.621 2.85472 127.085 3.74414L132.318 13.3594L137.358 3.76953C137.791 2.88268 138.346 2.01334 139.268 1.46973C140.2 0.92069 141.194 0.899423 141.888 0.899414V2.89941ZM148.368 0.899414V2.89941H141.888V0.899414H148.368ZM122.508 0.899414V2.89941H115.609V0.899414H122.508Z" fill="black"/>
</g>
<g filter="url(#filter6_i_664_4)">
<path d="M110.656 15.5596C110.656 6.37588 102.21 2.25987 95.1904 2.01172L94.5166 2C87.3767 2 78.4963 6.07979 78.4961 15.5596V29.7197C78.4961 38.9033 86.8297 43.0192 93.8418 43.2676L94.5166 43.2803C101.657 43.2802 110.656 39.1996 110.656 29.7197V15.5596ZM99.2363 28.8799V16.3994C99.2362 14.9926 98.7494 14.0511 98.0459 13.4365C97.3092 12.793 96.1369 12.3399 94.5166 12.3398C92.9332 12.3398 91.7757 12.7885 91.0439 13.4316C90.3437 14.0472 89.8566 14.9919 89.8564 16.3994V28.8799C89.8564 30.2876 90.3437 31.232 91.0439 31.8477C91.7757 32.4908 92.9331 32.9395 94.5166 32.9395V34.9395L94.1543 34.9336C90.5663 34.8042 88.0246 32.7398 87.8643 29.2354L87.8564 28.8799V16.3994C87.8567 12.5597 90.6168 10.3398 94.5166 10.3398L94.8838 10.3467C98.6458 10.4805 101.236 12.6796 101.236 16.3994V28.8799L101.229 29.2354C101.063 32.8565 98.3526 34.9393 94.5166 34.9395V32.9395C96.1369 32.9394 97.3092 32.4872 98.0459 31.8438C98.7496 31.2291 99.2363 30.2871 99.2363 28.8799ZM112.656 29.7197C112.656 35.1951 110.016 39.1637 106.412 41.6924C102.876 44.1737 98.4209 45.2802 94.5166 45.2803C90.6109 45.2803 86.1822 44.1727 82.6729 41.6865C79.0959 39.1525 76.4961 35.184 76.4961 29.7197V15.5596C76.4962 10.0955 79.096 6.12674 82.6729 3.59277C86.1822 1.10674 90.611 0 94.5166 0C98.421 5.87188e-05 102.876 1.10647 106.412 3.58789C110.016 6.11652 112.656 10.0843 112.656 15.5596V29.7197Z" fill="black"/>
</g>
<g filter="url(#filter7_i_664_4)">
<path d="M71.8955 16.2197C71.8955 12.3798 70.635 8.95978 68.415 6.7998C65.9739 4.35872 63.1949 3.04371 57.0781 2.96387L56.4756 2.95996V0.959961C59.863 0.959977 62.4652 1.29904 64.6104 2.0459C66.7911 2.8052 68.3856 3.94634 69.8096 5.36621C72.5066 7.99031 73.8955 11.9799 73.8955 16.2197C73.8955 22.2593 70.2621 26.7462 66.5332 28.9609L73.6631 39.3262L73.6807 39.3525L73.6973 39.3779C74.2487 40.2358 74.4862 41.3937 74.0527 42.4775C73.565 43.697 72.4074 44.3799 71.1152 44.3799H64.0352C63.0487 44.3799 62.111 44.1902 61.2451 43.6455C60.4271 43.1309 59.8494 42.4068 59.374 41.6943L52.8945 32.0342H52.8936C51.992 30.7841 51.8955 29.5559 51.8955 27.8604V23.0596C51.8955 22.3798 51.9911 21.3273 52.7432 20.4678C53.5464 19.55 54.6695 19.3203 55.6357 19.3203V21.3203L55.3887 21.3271C54.2119 21.4035 53.8956 22.0472 53.8955 23.0596V27.8604L53.9014 28.4443C53.9317 29.7059 54.0832 30.2899 54.5557 30.9199L61.0352 40.5801C61.8751 41.84 62.5953 42.3798 64.0352 42.3799H71.1152C72.184 42.3799 72.5142 41.4309 72.1064 40.6201L72.0156 40.46L63.5557 28.1602C67.1594 26.9394 71.6074 22.7904 71.8818 16.8047L71.8955 16.2197ZM56.835 19.3203V21.3203H55.6357V19.3203H56.835ZM60.5352 16.46C60.5352 15.4473 60.1617 14.7216 59.6123 14.2305C59.041 13.7199 58.1581 13.3604 57.0156 13.3604H51.0352V40.6396C51.0352 41.6058 50.8054 42.729 49.8877 43.5322C49.028 44.2844 47.9747 44.3799 47.2949 44.3799H41.3555C40.6808 44.3799 39.6123 44.2868 38.7559 43.498C37.866 42.6784 37.6758 41.5553 37.6758 40.6396V4.7002C37.6758 4.07857 37.7365 3.02342 38.4551 2.15234C39.2498 1.1891 40.3936 0.959961 41.3555 0.959961V2.95996L41.1094 2.96777C39.9391 3.04415 39.6758 3.68761 39.6758 4.7002V40.6396L39.6826 40.8867C39.7478 41.9849 40.2663 42.3343 41.1582 42.376L41.3555 42.3799H47.2949C48.3749 42.3799 49.0352 42.0196 49.0352 40.6396V11.3604H57.0156C60.1355 11.3605 62.5352 13.3401 62.5352 16.46L62.5273 16.7217C62.3681 19.3187 59.8538 21.1951 57.1104 21.3135L56.835 21.3203V19.3203C59.0707 19.3203 60.5351 17.8136 60.5352 16.46ZM56.4756 0.959961V2.95996H41.3555V0.959961H56.4756Z" fill="black"/>
</g>
<g filter="url(#filter8_i_664_4)">
<path d="M0 40.6396V4.63965C2.18232e-05 3.95989 0.0946283 2.90742 0.84668 2.04785C1.64983 1.12996 2.77301 0.899464 3.73926 0.899414V2.89941C2.35962 2.89951 2.00005 3.55987 2 4.63965V40.6396L2.00684 40.8867C2.08325 42.0634 2.7269 42.3798 3.73926 42.3799H9.67969L9.87695 42.376C10.7753 42.3344 11.3408 41.9851 11.4121 40.8867L11.4199 40.6396V30.6797H17.1797L17.6572 30.6758C27.4527 30.5092 32.788 25.2022 32.9551 17.209L32.96 16.8203C32.96 8.54031 27.5593 2.89941 17.2393 2.89941V0.899414C22.7532 0.899414 27.2216 2.41026 30.3281 5.28711C33.4511 8.17946 34.96 12.2334 34.96 16.8203C34.9599 21.4475 33.414 25.4892 30.2627 28.3564C27.1332 31.2038 22.6554 32.6797 17.1797 32.6797H13.4199V40.6396C13.4199 41.6059 13.1894 42.729 12.2715 43.5322C11.4119 44.2844 10.3595 44.3799 9.67969 44.3799H3.73926C3.05947 44.3799 2.00701 44.2843 1.14746 43.5322C0.22965 42.729 0 41.6059 0 40.6396ZM21.8994 17C21.8994 15.8827 21.5447 15.0449 20.9316 14.4736C20.3072 13.892 19.17 13.3604 17.1797 13.3604H13.4199V20.5801H17.1797V22.5801H11.4199V11.3604H17.1797C21.8596 11.3604 23.8994 13.88 23.8994 17L23.8936 17.2803C23.7693 20.1588 21.7131 22.58 17.1797 22.5801V20.5801C19.1573 20.5801 20.3 20.0396 20.9316 19.4512C21.5559 18.8695 21.8994 18.0393 21.8994 17ZM17.2393 0.899414V2.89941H3.73926V0.899414H17.2393Z" fill="black"/>
</g>
<defs>
<filter id="filter0_i_664_4" x="298.352" y="0" width="36.0996" height="45.2803" filterUnits="userSpaceOnUse" color-interpolation-filters="sRGB">
<feFlood flood-opacity="0" result="BackgroundImageFix"/>
<feBlend mode="normal" in="SourceGraphic" in2="BackgroundImageFix" result="shape"/>
<feColorMatrix in="SourceAlpha" type="matrix" values="0 0 0 0 0 0 0 0 0 0 0 0 0 0 0 0 0 0 127 0" result="hardAlpha"/>
<feOffset dx="200"/>
<feComposite in2="hardAlpha" operator="arithmetic" k2="-1" k3="1"/>
<feColorMatrix type="matrix" values="0 0 0 0 0 0 0 0 0 0 0 0 0 0 0 0 0 0 0.3 0"/>
<feBlend mode="normal" in2="shape" result="effect1_innerShadow_664_4"/>
</filter>
<filter id="filter1_i_664_4" x="261.359" y="0" width="36.1602" height="45.2803" filterUnits="userSpaceOnUse" color-interpolation-filters="sRGB">
<feFlood flood-opacity="0" result="BackgroundImageFix"/>
<feBlend mode="normal" in="SourceGraphic" in2="BackgroundImageFix" result="shape"/>
<feColorMatrix in="SourceAlpha" type="matrix" values="0 0 0 0 0 0 0 0 0 0 0 0 0 0 0 0 0 0 127 0" result="hardAlpha"/>
<feOffset dx="200"/>
<feComposite in2="hardAlpha" operator="arithmetic" k2="-1" k3="1"/>
<feColorMatrix type="matrix" values="0 0 0 0 0 0 0 0 0 0 0 0 0 0 0 0 0 0 0.3 0"/>
<feBlend mode="normal" in2="shape" result="effect1_innerShadow_664_4"/>
</filter>
<filter id="filter2_i_664_4" x="225.166" y="0.899414" width="35.3203" height="43.4805" filterUnits="userSpaceOnUse" color-interpolation-filters="sRGB">
<feFlood flood-opacity="0" result="BackgroundImageFix"/>
<feBlend mode="normal" in="SourceGraphic" in2="BackgroundImageFix" result="shape"/>
<feColorMatrix in="SourceAlpha" type="matrix" values="0 0 0 0 0 0 0 0 0 0 0 0 0 0 0 0 0 0 127 0" result="hardAlpha"/>
<feOffset dx="200"/>
<feComposite in2="hardAlpha" operator="arithmetic" k2="-1" k3="1"/>
<feColorMatrix type="matrix" values="0 0 0 0 0 0 0 0 0 0 0 0 0 0 0 0 0 0 0.3 0"/>
<feBlend mode="normal" in2="shape" result="effect1_innerShadow_664_4"/>
</filter>
<filter id="filter3_i_664_4" x="188.876" y="0" width="35.6807" height="45.2803" filterUnits="userSpaceOnUse" color-interpolation-filters="sRGB">
<feFlood flood-opacity="0" result="BackgroundImageFix"/>
<feBlend mode="normal" in="SourceGraphic" in2="BackgroundImageFix" result="shape"/>
<feColorMatrix in="SourceAlpha" type="matrix" values="0 0 0 0 0 0 0 0 0 0 0 0 0 0 0 0 0 0 127 0" result="hardAlpha"/>
<feOffset dx="200"/>
<feComposite in2="hardAlpha" operator="arithmetic" k2="-1" k3="1"/>
<feColorMatrix type="matrix" values="0 0 0 0 0 0 0 0 0 0 0 0 0 0 0 0 0 0 0.3 0"/>
<feBlend mode="normal" in2="shape" result="effect1_innerShadow_664_4"/>
</filter>
<filter id="filter4_i_664_4" x="152.52" y="0.899414" width="34.3594" height="43.4805" filterUnits="userSpaceOnUse" color-interpolation-filters="sRGB">
<feFlood flood-opacity="0" result="BackgroundImageFix"/>
<feBlend mode="normal" in="SourceGraphic" in2="BackgroundImageFix" result="shape"/>
<feColorMatrix in="SourceAlpha" type="matrix" values="0 0 0 0 0 0 0 0 0 0 0 0 0 0 0 0 0 0 127 0" result="hardAlpha"/>
<feOffset dx="200"/>
<feComposite in2="hardAlpha" operator="arithmetic" k2="-1" k3="1"/>
<feColorMatrix type="matrix" values="0 0 0 0 0 0 0 0 0 0 0 0 0 0 0 0 0 0 0.3 0"/>
<feBlend mode="normal" in2="shape" result="effect1_innerShadow_664_4"/>
</filter>
<filter id="filter5_i_664_4" x="112.508" y="0.899414" width="38.9609" height="43.4805" filterUnits="userSpaceOnUse" color-interpolation-filters="sRGB">
<feFlood flood-opacity="0" result="BackgroundImageFix"/>
<feBlend mode="normal" in="SourceGraphic" in2="BackgroundImageFix" result="shape"/>
<feColorMatrix in="SourceAlpha" type="matrix" values="0 0 0 0 0 0 0 0 0 0 0 0 0 0 0 0 0 0 127 0" result="hardAlpha"/>
<feOffset dx="200"/>
<feComposite in2="hardAlpha" operator="arithmetic" k2="-1" k3="1"/>
<feColorMatrix type="matrix" values="0 0 0 0 0 0 0 0 0 0 0 0 0 0 0 0 0 0 0.3 0"/>
<feBlend mode="normal" in2="shape" result="effect1_innerShadow_664_4"/>
</filter>
<filter id="filter6_i_664_4" x="76.4961" y="0" width="36.1602" height="45.2803" filterUnits="userSpaceOnUse" color-interpolation-filters="sRGB">
<feFlood flood-opacity="0" result="BackgroundImageFix"/>
<feBlend mode="normal" in="SourceGraphic" in2="BackgroundImageFix" result="shape"/>
<feColorMatrix in="SourceAlpha" type="matrix" values="0 0 0 0 0 0 0 0 0 0 0 0 0 0 0 0 0 0 127 0" result="hardAlpha"/>
<feOffset dx="200"/>
<feComposite in2="hardAlpha" operator="arithmetic" k2="-1" k3="1"/>
<feColorMatrix type="matrix" values="0 0 0 0 0 0 0 0 0 0 0 0 0 0 0 0 0 0 0.3 0"/>
<feBlend mode="normal" in2="shape" result="effect1_innerShadow_664_4"/>
</filter>
<filter id="filter7_i_664_4" x="37.6758" y="0.959961" width="36.6006" height="43.4199" filterUnits="userSpaceOnUse" color-interpolation-filters="sRGB">
<feFlood flood-opacity="0" result="BackgroundImageFix"/>
<feBlend mode="normal" in="SourceGraphic" in2="BackgroundImageFix" result="shape"/>
<feColorMatrix in="SourceAlpha" type="matrix" values="0 0 0 0 0 0 0 0 0 0 0 0 0 0 0 0 0 0 127 0" result="hardAlpha"/>
<feOffset dx="200"/>
<feComposite in2="hardAlpha" operator="arithmetic" k2="-1" k3="1"/>
<feColorMatrix type="matrix" values="0 0 0 0 0 0 0 0 0 0 0 0 0 0 0 0 0 0 0.3 0"/>
<feBlend mode="normal" in2="shape" result="effect1_innerShadow_664_4"/>
</filter>
<filter id="filter8_i_664_4" x="0" y="0.899414" width="34.96" height="43.4805" filterUnits="userSpaceOnUse" color-interpolation-filters="sRGB">
<feFlood flood-opacity="0" result="BackgroundImageFix"/>
<feBlend mode="normal" in="SourceGraphic" in2="BackgroundImageFix" result="shape"/>
<feColorMatrix in="SourceAlpha" type="matrix" values="0 0 0 0 0 0 0 0 0 0 0 0 0 0 0 0 0 0 127 0" result="hardAlpha"/>
<feOffset dx="200"/>
<feComposite in2="hardAlpha" operator="arithmetic" k2="-1" k3="1"/>
<feColorMatrix type="matrix" values="0 0 0 0 0 0 0 0 0 0 0 0 0 0 0 0 0 0 0.3 0"/>
<feBlend mode="normal" in2="shape" result="effect1_innerShadow_664_4"/>
</filter>
</defs>
</svg>
